<?xml version="1.0" encoding="UTF-8" standalone="no"?>
<!-- Created with Inkscape (http://www.inkscape.org/) -->

<svg
   xmlns:dc="http://purl.org/dc/elements/1.1/"
   xmlns:cc="http://creativecommons.org/ns#"
   xmlns:rdf="http://www.w3.org/1999/02/22-rdf-syntax-ns#"
   xmlns:svg="http://www.w3.org/2000/svg"
   xmlns="http://www.w3.org/2000/svg"
   xmlns:sodipodi="http://sodipodi.sourceforge.net/DTD/sodipodi-0.dtd"
   xmlns:inkscape="http://www.inkscape.org/namespaces/inkscape"
   width="250"
   height="250"
   viewBox="0 0 250 250"
   id="svg2"
   version="1.1"
   inkscape:version="0.91 r13725"
   sodipodi:docname="rtree.svg">
  <sodipodi:namedview
     id="base"
     pagecolor="#ffffff"
     bordercolor="#666666"
     borderopacity="1.0"
     inkscape:pageopacity="0.0"
     inkscape:pageshadow="2"
     inkscape:zoom="1.34"
     inkscape:cx="111.11799"
     inkscape:cy="288.76567"
     inkscape:document-units="px"
     inkscape:current-layer="layer2"
     showgrid="false"
     inkscape:object-paths="true"
     inkscape:snap-intersection-paths="true"
     inkscape:object-nodes="false"
     inkscape:window-width="1855"
     inkscape:window-height="1056"
     inkscape:window-x="65"
     inkscape:window-y="24"
     inkscape:window-maximized="1"
     units="px" />
  <defs
     id="defs4" />
  <metadata
     id="metadata7">
    <rdf:RDF>
      <cc:Work
         rdf:about="">
        <dc:format>image/svg+xml</dc:format>
        <dc:type
           rdf:resource="http://purl.org/dc/dcmitype/StillImage" />
        <dc:title></dc:title>
      </cc:Work>
    </rdf:RDF>
  </metadata>
  <g
     inkscape:groupmode="layer"
     id="layer2"
     inkscape:label="Top"
     style="display:inline"
     transform="translate(0,-802.36216)">
    <rect
       style="fill:#ffff73;fill-opacity:0.54901961;stroke:#2853ff;stroke-width:3.97738886;stroke-miterlimit:11.10000038;stroke-dasharray:none;stroke-opacity:1"
       id="rect4390"
       width="86.07692"
       height="150.11879"
       x="164.73524"
       y="833.49756" />
    <rect
       style="fill:#ffff73;fill-opacity:0.55072464;stroke:#000000;stroke-width:1.01877928;stroke-miterlimit:4;stroke-dasharray:none;stroke-opacity:0.29951692"
       id="rect4346"
       width="108.81469"
       height="195.8611"
       x="1.8985314"
       y="851.15155" />
    <g
       id="g4301" />
    <g
       id="g4436"
       transform="matrix(0.55738102,0,0,0.55738102,-163.74859,645.82375)"
       style="display:inline;fill:#8a862f;fill-opacity:0.54901963">
      <g
         id="content"
         transform="matrix(1.0629921,0,0,-1.0629921,-186.02362,789.27165)"
         xml:space="preserve"
         stroke-miterlimit="10.433"
         font-style="normal"
         font-variant="normal"
         font-weight="normal"
         font-stretch="normal"
         font-size-adjust="none"
         letter-spacing="normal"
         word-spacing="normal"
         style="font-style:normal;font-variant:normal;font-weight:normal;font-stretch:normal;letter-spacing:normal;word-spacing:normal;text-anchor:start;fill:#8a862f;fill-opacity:0.54901963;fill-rule:evenodd;stroke:#000000;stroke-linecap:butt;stroke-linejoin:miter;stroke-miterlimit:10.43299961;stroke-dasharray:none;stroke-dashoffset:0;stroke-opacity:1"><path
           d="m 475.82,440.67 -0.02,0.06 -0.02,0.06 -0.02,0.05 -0.02,0.06 -0.02,0.05 -0.02,0.05 -0.03,0.05 -0.02,0.05 -0.02,0.04 -0.02,0.05 -0.02,0.04 -0.03,0.04 -0.02,0.04 -0.03,0.03 -0.02,0.04 -0.03,0.03 -0.03,0.03 -0.03,0.03 -0.04,0.03 -0.03,0.02 -0.04,0.03 -0.04,0.02 -0.04,0.02 -0.05,0.01 -0.05,0.02 -0.05,0.01 -0.05,0.01 -0.06,0.01 -0.06,0.01 -0.07,0 -0.07,0.01 -0.03,0 -0.04,0 c -0.8,0 -0.95,-0.3 -1.2,-1 l -10.31,-29.79 c -0.89,-2.54 -2.88,-3.29 -5.58,-3.34 l 0,-1.54 10.81,0 0,1.54 c -2.49,0 -3.73,1.25 -3.73,2.55 0,0.14 0.05,0.64 0.1,0.74 l 2.29,6.53 0.55,1.54 5.57,16.19 5.63,-16.19 -11.2,0 -0.55,-1.54 12.3,0 2.64,-7.63 c 0.05,-0.19 0.15,-0.49 0.15,-0.69 0,-1.5 -2.79,-1.5 -4.13,-1.5 l 0,-1.54 13.69,0 0,1.54 -0.89,0 c -2.99,0 -3.69,0.35 -4.23,2 z"
           id="path4439"
           inkscape:connector-curvature="0"
           style="fill:#8a862f;fill-opacity:0.54901963;stroke-width:0" /></g>    </g>
    <g
       id="g4483"
       transform="matrix(0.55702768,0,0,0.55702768,-2.1217465,626.44342)"
       style="display:inline;fill:#8a862f;fill-opacity:0.54901961">
      <g
         word-spacing="normal"
         letter-spacing="normal"
         font-size-adjust="none"
         font-stretch="normal"
         font-weight="normal"
         font-variant="normal"
         font-style="normal"
         stroke-miterlimit="10.433"
         xml:space="preserve"
         transform="matrix(1.0629921,0,0,-1.0629921,-186.02362,789.27165)"
         id="g4485"
         style="font-style:normal;font-variant:normal;font-weight:normal;font-stretch:normal;letter-spacing:normal;word-spacing:normal;text-anchor:start;fill:#8a862f;fill-opacity:0.54901961;fill-rule:evenodd;stroke:#000000;stroke-linecap:butt;stroke-linejoin:miter;stroke-miterlimit:10.43299961;stroke-dasharray:none;stroke-dashoffset:0;stroke-opacity:1"><path
           id="path4487"
           d="m 478.81,423.79 0.45,0.09 0.44,0.11 0.43,0.12 0.43,0.13 0.41,0.15 0.4,0.15 0.39,0.17 0.38,0.18 0.37,0.19 0.36,0.19 0.35,0.21 0.33,0.22 0.32,0.23 0.31,0.24 0.3,0.24 0.28,0.26 0.27,0.26 0.25,0.27 0.24,0.28 0.22,0.28 0.21,0.29 0.19,0.3 0.17,0.3 0.16,0.31 0.14,0.32 0.12,0.32 0.11,0.32 0.08,0.33 0.07,0.33 0.05,0.34 0.03,0.34 0.01,0.35 c 0,4.33 -4.58,8.41 -11.06,8.41 l -0.34,-1.54 c 4.83,0 6.57,-4.24 6.57,-6.87 0,-3.2 -2.44,-7.38 -7.97,-7.38 l -7.22,0 0,-1.09 9.36,0 c 4.94,0 7.03,-4.64 7.03,-7.98 0,-3.53 -2.59,-7.62 -7.72,-7.62 l 0,0 -6.23,0 c -2.34,0 -2.44,0.35 -2.44,2 l 0,13.6 0,1.09 0,12.25 c 0,1.65 0.1,2 2.44,2 l 6.18,0 0.34,1.54 -18.23,0 0,-1.54 1.2,0 c 3.83,0 3.94,-0.55 3.94,-2.34 l 0,-26.25 c 0,-1.8 -0.11,-2.35 -3.94,-2.35 l -1.2,0 0,-1.54 19.53,0 c 6.63,0 11.11,4.43 11.11,9.12 0,4.33 -4.09,8.06 -9.62,8.67 z"
           inkscape:connector-curvature="0"
           style="fill:#8a862f;fill-opacity:0.54901961;stroke-width:0" /></g>    </g>
  </g>
  <g
     inkscape:groupmode="layer"
     id="layer3"
     inkscape:label="bbox"
     style="display:inline"
     transform="translate(0,-802.36216)">
    <rect
       style="fill:#ffffff;fill-opacity:0.73913042;stroke:#ff0000;stroke-width:1;stroke-miterlimit:4;stroke-dasharray:none;stroke-opacity:0.29951692"
       id="rect4294"
       width="32.906303"
       height="69.445412"
       x="167.15976"
       y="835.65814" />
    <rect
       style="fill:#ffffff;fill-opacity:0.73913042;stroke:#ff0000;stroke-width:1;stroke-miterlimit:4;stroke-dasharray:none;stroke-opacity:0.29951692"
       id="rect4183"
       width="65.811081"
       height="45.656281"
       x="182.31277"
       y="936.0686" />
    <rect
       y="926.00745"
       x="2.076159"
       height="62.183689"
       width="108.70972"
       id="rect4227"
       style="fill:#ffffff;fill-opacity:1;stroke:#ff0000;stroke-width:1;stroke-miterlimit:4;stroke-dasharray:none;stroke-opacity:0.29951692" />
    <rect
       y="851.82056"
       x="26.319815"
       height="56.168182"
       width="68.33136"
       id="rect4257"
       style="fill:#ffffff;fill-opacity:0.73913042;stroke:#ff0000;stroke-width:1;stroke-miterlimit:4;stroke-dasharray:none;stroke-opacity:0.29951692" />
    <rect
       y="929.31091"
       x="17.228445"
       height="117.46912"
       width="46.819939"
       id="rect4250"
       style="fill:#ffffff;fill-opacity:0.73913042;stroke:#ff0000;stroke-width:1;stroke-miterlimit:4;stroke-dasharray:none;stroke-opacity:0.29951692" />
  </g>
  <g
     inkscape:label="Calque 1"
     inkscape:groupmode="layer"
     id="layer1"
     transform="translate(0,-802.36216)">
    <path
       style="fill:#00e300;fill-opacity:0.22705311;fill-rule:evenodd;stroke:#000000;stroke-width:1px;stroke-linecap:butt;stroke-linejoin:miter;stroke-opacity:0.29951692"
       d="m 167.74116,905.35868 4.04061,-66.67007 28.28428,-3.03046 z"
       id="path3338"
       inkscape:connector-curvature="0" />
    <path
       style="fill:#00e300;fill-opacity:0.22705311;fill-rule:evenodd;stroke:#000000;stroke-width:1px;stroke-linecap:butt;stroke-linejoin:miter;stroke-opacity:0.29951692"
       d="m 248.18405,981.75904 -64.95039,-42.688 16.30874,-2.91802 z"
       id="path3340-6"
       inkscape:connector-curvature="0" />
    <path
       inkscape:connector-curvature="0"
       id="path3342"
       d="m 26.319814,851.82059 45.456858,55.55839 22.22336,-25.25381 z"
       style="display:inline;fill:#00e300;fill-opacity:0.22705311;fill-rule:evenodd;stroke:#000000;stroke-width:1px;stroke-linecap:butt;stroke-linejoin:miter;stroke-opacity:0.29951692" />
    <g
       style="display:inline"
       id="g4204"
       transform="translate(-211.06604,721.72766)">
      <path
         style="fill:#00e300;fill-opacity:0.22705311;fill-rule:evenodd;stroke:#000000;stroke-width:1px;stroke-linecap:butt;stroke-linejoin:miter;stroke-opacity:0.29951692"
         d="m 213.14219,266.46352 62.12438,-62.12438 22.72843,21.71828 15.15229,-10.10152 9.09137,18.18274 z"
         id="path3336"
         inkscape:connector-curvature="0" />
    </g>
    <path
       inkscape:connector-curvature="0"
       id="path3344"
       d="m 32.380724,928.59218 -15.15228,118.18782 46.46701,-5.0508 z"
       style="display:inline;fill:#00e300;fill-opacity:0.22705311;fill-rule:evenodd;stroke:#000000;stroke-width:1px;stroke-linecap:butt;stroke-linejoin:miter;stroke-opacity:0.29951692" />
  </g>
  <g
     inkscape:groupmode="layer"
     id="layer4"
     inkscape:label="clic">
    <g
       transform="translate(83.375277,-796.02986)"
       style="display:inline"
       id="g4829">
      <circle
         r="11.610713"
         cy="900.45294"
         cx="136.67213"
         id="path4801"
         style="color:#000000;clip-rule:nonzero;display:inline;overflow:visible;visibility:visible;opacity:1;isolation:auto;mix-blend-mode:normal;color-interpolation:sRGB;color-interpolation-filters:linearRGB;solid-color:#000000;solid-opacity:1;fill:#c6c6c6;fill-opacity:0.54901961;fill-rule:nonzero;stroke:#2d32ff;stroke-width:1.70000005;stroke-linecap:butt;stroke-linejoin:miter;stroke-miterlimit:4;stroke-dasharray:none;stroke-dashoffset:0;stroke-opacity:1;color-rendering:auto;image-rendering:auto;shape-rendering:auto;text-rendering:auto;enable-background:accumulate" />
      <g
         style="stroke:#7d88b4;stroke-opacity:1"
         transform="matrix(0.70710678,0.70710678,-0.70710678,0.70710678,676.96826,167.18654)"
         id="g4824">
        <path
           style="fill:none;fill-rule:evenodd;stroke:#7d88b4;stroke-width:2.5;stroke-linecap:butt;stroke-linejoin:miter;stroke-miterlimit:4;stroke-dasharray:none;stroke-opacity:1"
           d="m 136.67213,892.99929 0,15.53392"
           id="path4782"
           inkscape:connector-curvature="0"
           sodipodi:nodetypes="cc" />
        <path
           style="display:inline;fill:none;fill-rule:evenodd;stroke:#7d88b4;stroke-width:2.5;stroke-linecap:butt;stroke-linejoin:miter;stroke-miterlimit:4;stroke-dasharray:none;stroke-opacity:1"
           d="m 144.43909,900.45294 -15.53392,0"
           id="path4782-1"
           inkscape:connector-curvature="0"
           sodipodi:nodetypes="cc" />
      </g>
    </g>
  </g>
</svg>
